PathFileType	4	(X/Y/Z)	72_2_29_p1_0-419_filt_butterworth.trc
DataRate	CameraRate	NumFrames	NumMarkers	Units	OrigDataRate	OrigDataStartFrame	OrigNumFrames
49.0	49.0	4	27	m	49.0	0	419
Frame#	Time	RHip			RKnee			RAnkle			RBigToe			RSmallToe			RHeel			LHip			LKnee			LAnkle			LBigToe			LSmallToe			LHeel			Neck			Head			Nose			RShoulder			RElbow			RWrist			RThumb			RIndex			RPinky			LShoulder			LElbow			LWrist			LThumb			LIndex			LPinky			
		X1	Y1	Z1	X2	Y2	Z2	X3	Y3	Z3	X4	Y4	Z4	X5	Y5	Z5	X6	Y6	Z6	X7	Y7	Z7	X8	Y8	Z8	X9	Y9	Z9	X10	Y10	Z10	X11	Y11	Z11	X12	Y12	Z12	X13	Y13	Z13	X14	Y14	Z14	X15	Y15	Z15	X16	Y16	Z16	X17	Y17	Z17	X18	Y18	Z18	X19	Y19	Z19	X20	Y20	Z20	X21	Y21	Z21	X22	Y22	Z22	X23	Y23	Z23	X24	Y24	Z24	X25	Y25	Z25	X26	Y26	Z26	X27	Y27	Z27	
0	0.0	0.20246759701187192	0.5562196894692198	0.6019373749633585	0.22559490977823154	0.5951781223921997	1.0395741675647452	0.22214834812486278	0.631248953721771	1.4442372471311755	0.16630430062948376	0.4480684421847375	1.473337102318758	0.23335807410463605	0.42031650203405646	1.4461420540359196	0.19666166346559377	0.7462304855655927	1.5510691200462974	-0.016151907611877264	0.6113383575430565	0.6161335314284504	-0.013848696725459905	0.6387072688611264	1.0358437779261538	-0.028401177097145104	0.6923464267503203	1.4467995095799284	-0.03069974074282827	0.47920338567366194	1.4461206244946156	-0.08301876099495603	0.5236053114606872	1.460273748175037	-0.028996909040593197	0.7750384446151009	1.5272402213152605	0.08782197903334393	0.5937000925113826	-0.01061981886036834	0.08814609870949862	0.5405019025081439	-0.27130729931434755	0.06717864261251161	0.4398831758498056	-0.14141926908213578	0.24409879131626785	0.5206127239018058	0.08400852106623771	0.31648295178090713	0.506719954921539	0.36406648718321183	0.1420889880842184	0.4197977929089032	0.5269533808256486	-0.019507230366587112	0.42087820204148085	0.5918107139353892	-0.014696584029376654	0.4229309037386664	0.6039509337566377	0.0569441512263299	0.45097131592950435	0.6565225716240928	-0.0820201818611527	0.6116565611032111	0.08140580004536777	-0.12143939189165301	0.6074209569202644	0.37214786179889414	-0.016121465807958965	0.4230038206972385	0.5245170490659053	0.050622304457105236	0.38039274069760715	0.5883829304785086	0.06040229847406282	0.39878380457861906	0.6182886643161636	0.049761262971224726	0.417496480336079	0.6206800939518369
1	0.0204081632653061	0.20324469487889407	0.5560842002322529	0.609003719479316	0.22627278326231196	0.5944329175914718	1.0424112995008832	0.2222437695547412	0.6314686988886008	1.4440257981277338	0.1664879024515285	0.4485491408891539	1.4733790724075932	0.23735600512126293	0.43474304976351846	1.4481949235767988	0.19829841702450587	0.7468887503236706	1.551253186385693	-0.015444657199929813	0.6121883993820941	0.6218006227930074	-0.01355687598164542	0.6392877874397298	1.0360099176449389	-0.03069903669757719	0.7039031056587384	1.4530579219695459	-0.026520693423785754	0.4735691576182266	1.4425001181274304	-0.08603984435230265	0.5229261923107482	1.4594743739206124	-0.028824524539717247	0.77552208596809	1.527792788520383	0.08778905654733858	0.5937314016755569	-0.010620602830614553	0.08815483651938628	0.541017090330174	-0.2713146699392732	0.06706270293246493	0.43990310081010997	-0.14149566850208964	0.2441342102859468	0.5206398047414065	0.08400942628130398	0.31685757911895235	0.5066741414842527	0.36943166064436045	0.14218767001931418	0.420092426421519	0.52737339729649	-0.019098381434818224	0.421483045109593	0.5947046699817733	-0.01464170606358512	0.4229000383570356	0.6040392595948532	0.05693922874272779	0.4512562232544335	0.6566097729870015	-0.08411990331314156	0.620754872697171	0.08249750137291362	-0.12146785971135486	0.6076550241858276	0.3720997541440532	-0.016098184393424943	0.42311019537244426	0.5245942662814019	0.05085753864713049	0.3807097179491961	0.5886115629521049	0.0631080037172072	0.4002390092129923	0.618751893893349	0.05230571232538629	0.41839899530168284	0.6222523583492074
2	0.0408163265306122	0.2027464717623979	0.5560321241350593	0.6120132380229759	0.22677903436489402	0.5946229660723596	1.045913566554601	0.22229916348838136	0.6315594507134407	1.4438922871947542	0.16643644084380474	0.4487429998418424	1.473343296791279	0.23872770160976925	0.436933152216303	1.447330212021801	0.19930131399225268	0.7469105175626881	1.5521390752167201	-0.01543865139718982	0.6115387308230656	0.6249625211699641	-0.013823826259095376	0.6383743129070465	1.0356057686333073	-0.031839967496240726	0.7096163640744451	1.456165664941241	-0.024674319074170017	0.464508441670718	1.4369413472856758	-0.08752475173587482	0.5225309900166515	1.4590628733850817	-0.02882540352114881	0.7756328988440083	1.5275404193784	0.08776474990869285	0.5937542261130621	-0.01061494420353386	0.08670494508847944	0.5400976509930796	-0.2712613133382527	0.06714747052953782	0.4399002724039668	-0.141513000164786	0.24415249114712131	0.520686553378286	0.08402516870978298	0.31697158759974575	0.5067005724719649	0.37120266495073595	0.1422934092085979	0.42042276689491054	0.5269440118267035	-0.01893510321280471	0.42178136729634147	0.5961197337790372	-0.014634469226355296	0.42283071942194084	0.604123932277681	0.056896645692830435	0.4517069473690519	0.6567106156873531	-0.08435989594027365	0.6219572686934308	0.08265857508268643	-0.12148578889613751	0.6077608678816975	0.372055657174891	-0.016091744149069963	0.4231892800791708	0.5246427099804826	0.05261329556136819	0.38134012796623745	0.5894558680063173	0.06444848246333608	0.4012219322161311	0.6182331247348631	0.05350042328404787	0.4188225584542247	0.6229078422504232
3	0.0612244897959183	0.20047509013423467	0.5561796763528715	0.6126013317699337	0.22710938929996738	0.5953508377248128	1.0486129433908642	0.22232287699250805	0.631380601044967	1.4441980837909103	0.16634320723994453	0.44865698180785535	1.4732390239942226	0.23800510969389416	0.4307159405638864	1.4452952072535252	0.20010933104515743	0.7464780341838806	1.5535344687558506	-0.01668461926113649	0.6079740304866057	0.6264032059227335	-0.015164705881318869	0.6345207455231525	1.0339802393033757	-0.031939283937479204	0.7100787059557516	1.4564350059796163	-0.02439142201218753	0.45467538211909925	1.4311119469972393	-0.08762332280348994	0.5223578366307086	1.4590056000674667	-0.029130484263529557	0.7752074090654317	1.5259737615743916	0.08776017644447545	0.5937686553305362	-0.010608033246725126	0.08364965499159674	0.5365391094137882	-0.2711706448308234	0.06734455020786681	0.43988934851162637	-0.14148028484547023	0.24414874992850968	0.5207376043507064	0.08404282042847552	0.3173465138692475	0.5078093081730028	0.3701994997814426	0.14184068833969968	0.4198008784259255	0.5249158716951174	-0.018976325620967602	0.42179651849870137	0.5961967988632435	-0.014641114309738003	0.42276317830695304	0.6037933494927072	0.056818357895189374	0.4521509057315401	0.6567814375067086	-0.0831035218106718	0.6168547349828506	0.0820732518916863	-0.1214931837754511	0.6077623322019847	0.3720232512818264	-0.016117015271953642	0.42323996627351756	0.5246613939801663	0.055419559871981036	0.38220876728272113	0.590149180445957	0.06453409474567424	0.4017425450771763	0.6169864274639284	0.0535885008673965	0.4187705865392666	0.6223595118516964
